<svg width="1280" height="400" viewBox="0 0 1280 400" xmlns="http://www.w3.org/2000/svg">
  <rect width="1280" height="400" fill="#1A5C38"/>

  <circle cx="64" cy="64" r="180" fill="none" stroke="#ffffff" stroke-width="1" opacity="0.06"/>
  <circle cx="64" cy="64" r="280" fill="none" stroke="#ffffff" stroke-width="1" opacity="0.04"/>
  <circle cx="1216" cy="336" r="200" fill="none" stroke="#ffffff" stroke-width="1" opacity="0.06"/>
  <circle cx="1216" cy="336" r="320" fill="none" stroke="#ffffff" stroke-width="1" opacity="0.04"/>

  <rect x="80" y="120" width="88" height="88" rx="20" fill="#ffffff" opacity="0.12"/>
  <circle cx="124" cy="164" r="24" fill="none" stroke="#ffffff" stroke-width="3" opacity="0.5"/>
  <circle cx="124" cy="164" r="15" fill="none" stroke="#ffffff" stroke-width="3" opacity="0.7"/>
  <circle cx="124" cy="164" r="7" fill="#ffffff"/>
  <line x1="124" y1="140" x2="124" y2="134" stroke="#ffffff" stroke-width="2.5" stroke-linecap="round" opacity="0.6"/>
  <line x1="124" y1="188" x2="124" y2="194" stroke="#ffffff" stroke-width="2.5" stroke-linecap="round" opacity="0.6"/>
  <line x1="100" y1="164" x2="94" y2="164" stroke="#ffffff" stroke-width="2.5" stroke-linecap="round" opacity="0.6"/>
  <line x1="148" y1="164" x2="154" y2="164" stroke="#ffffff" stroke-width="2.5" stroke-linecap="round" opacity="0.6"/>

  <text x="192" y="152" font-family="'Plus Jakarta Sans', 'Segoe UI', sans-serif" font-size="52" font-weight="600" fill="#ffffff" letter-spacing="-1">PTE Sansar</text>
  <text x="192" y="196" font-family="'Plus Jakarta Sans', 'Segoe UI', sans-serif" font-size="22" font-weight="400" fill="#ffffff" opacity="0.75">तपाईंको संसार फेर्ने साथी — Your companion to change your world</text>

  <line x1="192" y1="220" x2="780" y2="220" stroke="#ffffff" stroke-width="1" opacity="0.2"/>

  <rect x="192" y="244" width="160" height="36" rx="8" fill="#ffffff" opacity="0.12"/>
  <text x="272" y="267" text-anchor="middle" font-family="'Plus Jakarta Sans', 'Segoe UI', sans-serif" font-size="13" font-weight="500" fill="#ffffff">⚡ AI Scoring</text>

  <rect x="366" y="244" width="200" height="36" rx="8" fill="#ffffff" opacity="0.12"/>
  <text x="466" y="267" text-anchor="middle" font-family="'Plus Jakarta Sans', 'Segoe UI', sans-serif" font-size="13" font-weight="500" fill="#ffffff">🇳🇵 Nepali Feedback</text>

  <rect x="580" y="244" width="180" height="36" rx="8" fill="#ffffff" opacity="0.12"/>
  <text x="670" y="267" text-anchor="middle" font-family="'Plus Jakarta Sans', 'Segoe UI', sans-serif" font-size="13" font-weight="500" fill="#ffffff">∞ Unlimited Questions</text>

  <rect x="774" y="244" width="160" height="36" rx="8" fill="#ffffff" opacity="0.12"/>
  <text x="854" y="267" text-anchor="middle" font-family="'Plus Jakarta Sans', 'Segoe UI', sans-serif" font-size="13" font-weight="500" fill="#ffffff">📊 Mock Tests</text>

  <text x="192" y="340" font-family="'Plus Jakarta Sans', 'Segoe UI', sans-serif" font-size="14" fill="#ffffff" opacity="0.5">Built by Udan Technologies Pvt. Ltd. · ptesansar.com · React + TypeScript + Supabase</text>

  <rect x="980" y="100" width="220" height="220" rx="24" fill="#ffffff" opacity="0.06"/>
  <rect x="992" y="112" width="196" height="196" rx="18" fill="none" stroke="#ffffff" stroke-width="1" opacity="0.15"/>
  <circle cx="1090" cy="210" r="60" fill="none" stroke="#ffffff" stroke-width="3" opacity="0.2"/>
  <circle cx="1090" cy="210" r="40" fill="none" stroke="#ffffff" stroke-width="3" opacity="0.35"/>
  <circle cx="1090" cy="210" r="20" fill="none" stroke="#ffffff" stroke-width="3" opacity="0.55"/>
  <circle cx="1090" cy="210" r="8" fill="#ffffff" opacity="0.8"/>
  <line x1="1090" y1="150" x2="1090" y2="140" stroke="#ffffff" stroke-width="2.5" stroke-linecap="round" opacity="0.4"/>
  <line x1="1090" y1="270" x2="1090" y2="280" stroke="#ffffff" stroke-width="2.5" stroke-linecap="round" opacity="0.4"/>
  <line x1="1030" y1="210" x2="1020" y2="210" stroke="#ffffff" stroke-width="2.5" stroke-linecap="round" opacity="0.4"/>
  <line x1="1150" y1="210" x2="1160" y2="210" stroke="#ffffff" stroke-width="2.5" stroke-linecap="round" opacity="0.4"/>
</svg>
